[Header]
FileType HTR
DataType HTRS
FileVersion 1
NumSegments 64
NumFrames 3
DataFrameRate 30
EulerRotationOrder ZYX
CalibrationUnits mm
RotationUnits Degrees
GlobalAxisofGravity Y
BoneLengthAxis Y
ScaleFactor 1.0
[SegmentNames&Hierarchy]
Hips	GLOBAL
Spine	Hips
Spine1	Spine
Spine2	Spine1
Neck	Spine2
Head	Neck
LeftEye	Head
RightEye	Head
LeftShoulder	Spine2
LeftArm	LeftShoulder
LeftForeArm	LeftArm
LeftHand	LeftForeArm
LeftHandThumb1	LeftHand
LeftHandThumb2	LeftHandThumb1
LeftHandThumb3	LeftHandThumb2
LeftHandThumb4	LeftHandThumb3
LeftHandIndex1	LeftHand
LeftHandIndex2	LeftHandIndex1
LeftHandIndex3	LeftHandIndex2
LeftHandIndex4	LeftHandIndex3
LeftHandMiddle1	LeftHand
LeftHandMiddle2	LeftHandMiddle1
LeftHandMiddle3	LeftHandMiddle2
LeftHandMiddle4	LeftHandMiddle3
LeftHandRing1	LeftHand
LeftHandRing2	LeftHandRing1
LeftHandRing3	LeftHandRing2
LeftHandRing4	LeftHandRing3
LeftHandPinky1	LeftHand
LeftHandPinky2	LeftHandPinky1
LeftHandPinky3	LeftHandPinky2
LeftHandPinky4	LeftHandPinky3
RightShoulder	Spine2
RightArm	RightShoulder
RightForeArm	RightArm
RightHand	RightForeArm
RightHandPinky1	RightHand
RightHandPinky2	RightHandPinky1
RightHandPinky3	RightHandPinky2
RightHandPinky4	RightHandPinky3
RightHandRing1	RightHand
RightHandRing2	RightHandRing1
RightHandRing3	RightHandRing2
RightHandRing4	RightHandRing3
RightHandMiddle1	RightHand
RightHandMiddle2	RightHandMiddle1
RightHandMiddle3	RightHandMiddle2
RightHandMiddle4	RightHandMiddle3
RightHandIndex1	RightHand
RightHandIndex2	RightHandIndex1
RightHandIndex3	RightHandIndex2
RightHandIndex4	RightHandIndex3
RightHandThumb1	RightHand
RightHandThumb2	RightHandThumb1
RightHandThumb3	RightHandThumb2
RightHandThumb4	RightHandThumb3
LeftUpLeg	Hips
LeftLeg	LeftUpLeg
LeftFoot	LeftLeg
LeftToeBase	LeftFoot
RightUpLeg	Hips
RightLeg	RightUpLeg
RightFoot	RightLeg
RightToeBase	RightFoot
[BasePosition]
Hips	0	0	0	0	0	0	1
Spine	0	0	0	0	0	0	1
Spine1	0	0	0	0	0	0	1
Spine2	0	0	0	0	0	0	1
Neck	0	0	0	0	0	0	1
Head	0	0	0	0	0	0	1
LeftEye	0	0	0	0	0	0	1
RightEye	0	0	0	0	0	0	1
LeftShoulder	0	0	0	0	0	0	1
LeftArm	0	0	0	0	0	0	1
LeftForeArm	0	0	0	0	0	0	1
LeftHand	0	0	0	0	0	0	1
LeftHandThumb1	0	0	0	0	0	0	1
LeftHandThumb2	0	0	0	0	0	0	1
LeftHandThumb3	0	0	0	0	0	0	1
LeftHandThumb4	0	0	0	0	0	0	1
LeftHandIndex1	0	0	0	0	0	0	1
LeftHandIndex2	0	0	0	0	0	0	1
LeftHandIndex3	0	0	0	0	0	0	1
LeftHandIndex4	0	0	0	0	0	0	1
LeftHandMiddle1	0	0	0	0	0	0	1
LeftHandMiddle2	0	0	0	0	0	0	1
LeftHandMiddle3	0	0	0	0	0	0	1
LeftHandMiddle4	0	0	0	0	0	0	1
LeftHandRing1	0	0	0	0	0	0	1
LeftHandRing2	0	0	0	0	0	0	1
LeftHandRing3	0	0	0	0	0	0	1
LeftHandRing4	0	0	0	0	0	0	1
LeftHandPinky1	0	0	0	0	0	0	1
LeftHandPinky2	0	0	0	0	0	0	1
LeftHandPinky3	0	0	0	0	0	0	1
LeftHandPinky4	0	0	0	0	0	0	1
RightShoulder	0	0	0	0	0	0	1
RightArm	0	0	0	0	0	0	1
RightForeArm	0	0	0	0	0	0	1
RightHand	0	0	0	0	0	0	1
RightHandPinky1	0	0	0	0	0	0	1
RightHandPinky2	0	0	0	0	0	0	1
RightHandPinky3	0	0	0	0	0	0	1
RightHandPinky4	0	0	0	0	0	0	1
RightHandRing1	0	0	0	0	0	0	1
RightHandRing2	0	0	0	0	0	0	1
RightHandRing3	0	0	0	0	0	0	1
RightHandRing4	0	0	0	0	0	0	1
RightHandMiddle1	0	0	0	0	0	0	1
RightHandMiddle2	0	0	0	0	0	0	1
RightHandMiddle3	0	0	0	0	0	0	1
RightHandMiddle4	0	0	0	0	0	0	1
RightHandIndex1	0	0	0	0	0	0	1
RightHandIndex2	0	0	0	0	0	0	1
RightHandIndex3	0	0	0	0	0	0	1
RightHandIndex4	0	0	0	0	0	0	1
RightHandThumb1	0	0	0	0	0	0	1
RightHandThumb2	0	0	0	0	0	0	1
RightHandThumb3	0	0	0	0	0	0	1
RightHandThumb4	0	0	0	0	0	0	1
LeftUpLeg	0	0	0	0	0	0	1
LeftLeg	0	0	0	0	0	0	1
LeftFoot	0	0	0	0	0	0	1
LeftToeBase	0	0	0	0	0	0	1
RightUpLeg	0	0	0	0	0	0	1
RightLeg	0	0	0	0	0	0	1
RightFoot	0	0	0	0	0	0	1
RightToeBase	0	0	0	0	0	0	1
[Hips]
18	84.1807251	1022.940735	-84.40313721	-3.025571585	-56.81397247	-3.141936064	1.0
19	78.21026611	1026.709106	-82.38948059	-3.409383774	-64.65367889	-2.599455833	1.0
20	70.82130432	1030.074951	-77.7281189	-3.365963221	-71.0187912	-2.418283224	1.0
[Spine]
18	0	101.8159943	1.315000057	3.51155591	0.6241744161	1.716605663	1.0
19	0	101.8159943	1.315000057	3.723651171	0.814972043	1.657825351	1.0
20	0	101.8159943	1.315000057	3.913195133	0.9699192047	1.661964417	1.0
[Spine1]
18	0	100.8349991	-10.00800037	1.306928396	-0.6049280167	-3.548604012	1.0
19	0	100.8349991	-10.00800037	1.472793341	-0.4746341407	-3.535002947	1.0
20	0	100.8349991	-10.00800037	1.616914749	-0.2993507087	-3.428039551	1.0
[Spine2]
18	0	91	-13.73399925	1.224876642	-0.2224794626	0.6253035665	1.0
19	0	91	-13.73399925	1.401128888	-0.1203958392	0.489036113	1.0
20	0	91	-13.73399925	1.558583856	0.007585913409	0.2901937664	1.0
[Neck]
18	0	166.7169952	-25.16200066	7.230219841	-5.835706711	1.523447514	1.0
19	0	166.7169952	-25.16200066	6.963267326	-5.003973007	1.279705524	1.0
20	0	166.7169952	-25.16200066	6.637018204	-4.174071312	0.9429198503	1.0
[Head]
18	0	96.17900085	16.84999847	-3.785416126	-19.42906952	9.495048523	1.0
19	0	96.17900085	16.84999847	-3.814443827	-17.31236649	8.478102684	1.0
20	0	96.17900085	16.84999847	-3.930490971	-15.13055229	7.244243622	1.0
[LeftEye]
18	30.6760006	64.09500122	92.83599854	0	0	0	1.0
19	30.6760006	64.09500122	92.83599854	0	0	0	1.0
20	30.6760006	64.09500122	92.83599854	0	0	0	1.0
[RightEye]
18	-30.6760006	64.09500122	92.83499908	0	0	0	1.0
19	-30.6760006	64.09500122	92.83499908	0	0	0	1.0
20	-30.6760006	64.09500122	92.83499908	0	0	0	1.0
[LeftShoulder]
18	45.70400238	109.4599991	-26.28000069	4.661457062	-17.49069977	-13.27952671	1.0
19	45.70400238	109.4599991	-26.28000069	4.689745426	-16.76557922	-13.38532543	1.0
20	45.70400238	109.4599991	-26.28000069	4.749030113	-16.18702507	-13.59993649	1.0
[LeftArm]
18	105.923996	-5.24600029	-22.32099915	13.00070572	4.485543251	-57.93834305	1.0
19	105.923996	-5.24600029	-22.32099915	13.17327976	3.341334581	-58.20321274	1.0
20	105.923996	-5.24600029	-22.32099915	13.9632473	1.988048911	-58.70695496	1.0
[LeftForeArm]
18	278.414978	-0.0009999999311	0	-3.317010396e-06	-8.828856468	-0.0002117170225	1.0
19	278.414978	-0.0009999999311	0	-3.121715963e-06	-7.940545559	-0.0002201980824	1.0
20	278.414978	-0.0009999999311	0	-1.972938435e-06	-7.145938396	-0.0002165619371	1.0
[LeftHand]
18	283.2879944	0	0	-28.54141617	8.587278366	1.283201694	1.0
19	283.2879944	0	0	-29.08550644	8.090065956	0.2703092396	1.0
20	283.2879944	0	0	-29.54693604	6.922111034	-0.9077398777	1.0
[LeftHandThumb1]
18	24.6609993	-15.75	26.8239994	-0.4889863729	2.201392412	4.818544865	1.0
19	24.6609993	-15.75	26.8239994	-0.4889863729	2.201392412	4.818544865	1.0
20	24.6609993	-15.75	26.8239994	-0.4889863729	2.201392412	4.818544865	1.0
[LeftHandThumb2]
18	32.29800034	-18.64699936	18.64699936	20.37380409	18.94900703	22.87399292	1.0
19	32.29800034	-18.64699936	18.64699936	20.30091286	18.82690048	22.89341927	1.0
20	32.29800034	-18.64699936	18.64699936	20.40913391	18.78048706	22.85716057	1.0
[LeftHandThumb3]
18	26.52600098	-15.31499958	15.31499958	-13.16287231	5.517339706	7.980086803	1.0
19	26.52600098	-15.31499958	15.31499958	-13.15795612	5.521059513	7.979110241	1.0
20	26.52600098	-15.31499958	15.31499958	-13.16323662	5.51042223	7.978179455	1.0
[LeftHandThumb4]
18	19.54599953	-11.28499985	11.28499985	0	0	0	1.0
19	19.54599953	-11.28499985	11.28499985	0	0	0	1.0
20	19.54599953	-11.28499985	11.28499985	0	0	0	1.0
[LeftHandIndex1]
18	91.09299469	-5.170999527	22.60099792	0.1516952068	-0.8613633513	-8.069583893	1.0
19	91.09299469	-5.170999527	22.60099792	0.1636405736	-0.870490849	-7.913320065	1.0
20	91.09299469	-5.170999527	22.60099792	0.1376490295	-0.8610886931	-8.200780869	1.0
[LeftHandIndex2]
18	36.76399994	0	0	-0.2668509185	1.745648265	-17.38122559	1.0
19	36.76399994	0	0	-0.268512696	1.750946999	-17.4356823	1.0
20	36.76399994	0	0	-0.2685416043	1.751034856	-17.43672752	1.0
[LeftHandIndex3]
18	28.83100128	0	0	-0.05749876052	0.8178171515	-8.043136597	1.0
19	28.83100128	0	0	-0.05827817321	0.823320508	-8.097545624	1.0
20	28.83100128	0	0	-0.05830121413	0.8234227896	-8.098568916	1.0
[LeftHandIndex4]
18	23.92700005	0	0	0	0	0	1.0
19	23.92700005	0	0	0	0	0	1.0
20	23.92700005	0	0	0	0	0	1.0
[LeftHandMiddle1]
18	95.33399963	0	0	-0.7885954976	2.750911474	-15.62674332	1.0
19	95.33399963	0	0	-0.7809793949	2.711606979	-15.51452637	1.0
20	95.33399963	0	0	-0.789881289	2.708686829	-15.64694405	1.0
[LeftHandMiddle2]
18	36.98199844	0	0	-0.2686627507	1.751413465	-17.44065094	1.0
19	36.98199844	0	0	-0.267518729	1.747755289	-17.40291977	1.0
20	36.98199844	0	0	-0.2672523856	1.746926427	-17.3943634	1.0
[LeftHandMiddle3]
18	29.50900078	0	0	-0.3002892435	1.849017382	-18.44729424	1.0
19	29.50900078	0	0	-0.2990665734	1.845384955	-18.4097023	1.0
20	29.50900078	0	0	-0.2987888157	1.844567895	-18.40120506	1.0
[LeftHandMiddle4]
18	28.3390007	0	0	0	0	0	1.0
19	28.3390007	0	0	0	0	0	1.0
20	28.3390007	0	0	0	0	0	1.0
[LeftHandRing1]
18	91.04499817	-0.4390000105	-18.65100098	-1.228913307	3.326372862	-21.74786186	1.0
19	91.04499817	-0.4390000105	-18.65100098	-1.216952324	3.348260403	-21.5907383	1.0
20	91.04499817	-0.4390000105	-18.65100098	-1.226984739	3.321451664	-21.72283554	1.0
[LeftHandRing2]
18	31.54000092	0	0	-0.3854066133	2.086811781	-20.92583847	1.0
19	31.54000092	0	0	-0.3846713006	2.084885597	-20.90569115	1.0
20	31.54000092	0	0	-0.3839780986	2.083077669	-20.88678551	1.0
[LeftHandRing3]
18	29.37700081	0	0	-0.28222543	1.79397285	-17.87900543	1.0
19	29.37700081	0	0	-0.2815939784	1.79202497	-17.85881424	1.0
20	29.37700081	0	0	-0.2810011506	1.790204287	-17.83997536	1.0
[LeftHandRing4]
18	26.47500038	0	0	0	0	0	1.0
19	26.47500038	0	0	0	0	0	1.0
20	26.47500038	0	0	0	0	0	1.0
[LeftHandPinky1]
18	80.77799988	-4.887000084	-38.06099701	-1.770539045	5.196457863	-27.5222187	1.0
19	80.77799988	-4.887000084	-38.06099701	-1.734013081	5.310045719	-27.35143852	1.0
20	80.77799988	-4.887000084	-38.06099701	-1.760961533	5.216569424	-27.45850182	1.0
[LeftHandPinky2]
18	36	0	0	-0.2733027339	1.766090393	-17.59170914	1.0
19	36	0	0	-0.2694964409	1.754071593	-17.46804047	1.0
20	36	0	0	-0.2682309449	1.750073671	-17.42682838	1.0
[LeftHandPinky3]
18	21.14200211	0	0	-0.246139884	1.678040147	-16.68769646	1.0
19	21.14200211	0	0	-0.2426094562	1.666235924	-16.56689835	1.0
20	21.14200211	0	0	-0.2413485497	1.662016988	-16.52373886	1.0
[LeftHandPinky4]
18	19.75699997	0	0	0	0	0	1.0
19	19.75699997	0	0	0	0	0	1.0
20	19.75699997	0	0	0	0	0	1.0
[RightShoulder]
18	-45.70000076	109.4620056	-26.28000069	4.631444454	14.94962502	14.43670464	1.0
19	-45.70000076	109.4620056	-26.28000069	4.73970747	14.65668678	14.60140133	1.0
20	-45.70000076	109.4620056	-26.28000069	4.831832886	14.12645435	14.65185261	1.0
[RightArm]
18	-105.9280014	-5.248000145	-22.32099915	-24.62513351	-9.675811768	70.15914917	1.0
19	-105.9280014	-5.248000145	-22.32099915	-20.12231255	-7.817188263	69.40995789	1.0
20	-105.9280014	-5.248000145	-22.32099915	-14.29507923	-5.963220596	68.62030029	1.0
[RightForeArm]
18	-278.414978	0	0	1.949914986e-05	16.93750954	3.90240848e-06	1.0
19	-278.414978	0	0	1.409751349e-05	14.61991978	1.641894642e-06	1.0
20	-278.414978	0	0	-1.789046564e-06	12.43143368	4.588835964e-06	1.0
[RightHand]
18	-283.2879944	0	0.0009999999311	26.49195671	13.15510368	2.071784496	1.0
19	-283.2879944	0	0.0009999999311	19.89217949	11.86245251	-1.724217415	1.0
20	-283.2879944	0	0.0009999999311	12.19898987	9.943059921	-4.677821636	1.0
[RightHandPinky1]
18	-80.76699829	-4.885000229	-38.06000137	-1.447216034	-5.351887703	26.37859154	1.0
19	-80.76699829	-4.885000229	-38.06000137	-1.437041998	-5.26140213	26.23189926	1.0
20	-80.76699829	-4.885000229	-38.06000137	-1.42565465	-5.219398499	26.06087303	1.0
[RightHandPinky2]
18	-36	0	0.0009999999311	-0.2112351507	-1.383976698	17.37456894	1.0
19	-36	0	0.0009999999311	-0.2110377401	-1.383332491	17.36623573	1.0
20	-36	0	0.0009999999311	-0.211145401	-1.383690119	17.37071991	1.0
[RightHandPinky3]
18	-21.14200211	0	0	-0.190558359	-1.316037536	16.47751999	1.0
19	-21.14200211	0	0	-0.1903576702	-1.315345764	16.46866989	1.0
20	-21.14200211	0	0	-0.1904533803	-1.315657616	16.47279167	1.0
[RightHandPinky4]
18	-19.75699997	0	0	0	0	0	1.0
19	-19.75699997	0	0	0	0	0	1.0
20	-19.75699997	0	0	0	0	0	1.0
[RightHandRing1]
18	-91.03599548	-0.4390000105	-18.65100098	-1.061309814	-2.882373095	20.72211266	1.0
19	-91.03599548	-0.4390000105	-18.65100098	-1.047847271	-2.738754034	20.52025604	1.0
20	-91.03599548	-0.4390000105	-18.65100098	-1.038465858	-2.666030169	20.37826347	1.0
[RightHandRing2]
18	-31.54000092	0	0	-0.3049703538	-1.654241681	20.88955498	1.0
19	-31.54000092	0	0	-0.3042194545	-1.65226841	20.86348915	1.0
20	-31.54000092	0	0	-0.3036640584	-1.650823951	20.84443855	1.0
[RightHandRing3]
18	-29.37700081	0	0	-0.2230657637	-1.421272278	17.83820534	1.0
19	-29.37700081	0	0	-0.2224348783	-1.419311404	17.81287766	1.0
20	-29.37700081	0	0	-0.2219708264	-1.417865038	17.7942028	1.0
[RightHandRing4]
18	-26.47500038	0	0	0	0	0	1.0
19	-26.47500038	0	0	0	0	0	1.0
20	-26.47500038	0	0	0	0	0	1.0
[RightHandMiddle1]
18	-95.32500458	0	0	-0.7153837681	-2.541886568	15.23416615	1.0
19	-95.32500458	0	0	-0.6952789426	-2.429615498	14.89897346	1.0
20	-95.32500458	0	0	-0.6819915175	-2.386487007	14.67573738	1.0
[RightHandMiddle2]
18	-36.98199844	0	0	-0.2127492875	-1.388843894	17.41777992	1.0
19	-36.98199844	0	0	-0.212300539	-1.387405038	17.39916801	1.0
20	-36.98199844	0	0	-0.2119276524	-1.386193752	17.38356781	1.0
[RightHandMiddle3]
18	-29.50900078	0	0	-0.2378614247	-1.468468904	18.42542648	1.0
19	-29.50900078	0	0	-0.2373882681	-1.467055082	18.40702438	1.0
20	-29.50900078	0	0	-0.236989975	-1.465861917	18.39153099	1.0
[RightHandMiddle4]
18	-28.3390007	0	0.0009999999311	0	0	0	1.0
19	-28.3390007	0	0.0009999999311	0	0	0	1.0
20	-28.3390007	0	0.0009999999311	0	0	0	1.0
[RightHandIndex1]
18	-91.08300018	-5.167999744	22.60099792	0.2423116267	1.10387826	6.987243176	1.0
19	-91.08300018	-5.167999744	22.60099792	0.1950671375	1.260533214	6.673158646	1.0
20	-91.08300018	-5.167999744	22.60099792	0.168215856	1.344601393	6.519556046	1.0
[RightHandIndex2]
18	-36.76399994	0	0	-0.2129204273	-1.389361501	17.4246521	1.0
19	-36.76399994	0	0	-0.2126361877	-1.388455987	17.41295242	1.0
20	-36.76399994	0	0	-0.2125228941	-1.388115406	17.40848732	1.0
[RightHandIndex3]
18	-28.83100128	0	0	-0.04596287385	-0.6514844894	8.070532799	1.0
19	-28.83100128	0	0	-0.04582915083	-0.650541842	8.058842659	1.0
20	-28.83100128	0	0	-0.04577565193	-0.6501780748	8.054366112	1.0
[RightHandIndex4]
18	-23.92700005	0	0	0	0	0	1.0
19	-23.92700005	0	0	0	0	0	1.0
20	-23.92700005	0	0	0	0	0	1.0
[RightHandThumb1]
18	-24.64799881	-15.72700024	26.82600021	-1.658462644	-0.289145112	-4.221315384	1.0
19	-24.64799881	-15.72700024	26.82600021	-1.658462644	-0.289145112	-4.221315384	1.0
20	-24.64799881	-15.72700024	26.82600021	-1.658462644	-0.289145112	-4.221315384	1.0
[RightHandThumb2]
18	-32.29800034	-18.64699936	18.64699936	22.30051613	-21.75641632	-23.41649818	1.0
19	-32.29800034	-18.64699936	18.64699936	21.60503197	-21.4877758	-23.05085945	1.0
20	-32.29800034	-18.64699936	18.64699936	20.94640541	-21.15391922	-22.69900703	1.0
[RightHandThumb3]
18	-26.52600098	-15.31399918	15.31399918	-14.24798584	-6.340453148	-11.31188488	1.0
19	-26.52600098	-15.31399918	15.31399918	-14.47787189	-6.904281139	-11.07146263	1.0
20	-26.52600098	-15.31399918	15.31399918	-14.37695789	-7.111748219	-11.01613808	1.0
[RightHandThumb4]
18	-19.54599953	-11.28499985	11.28499985	0	0	0	1.0
19	-19.54599953	-11.28499985	11.28499985	0	0	0	1.0
20	-19.54599953	-11.28499985	11.28499985	0	0	0	1.0
[LeftUpLeg]
18	82.07800293	-67.51699829	-15.99599934	-20.15065384	27.24230194	8.764969826	1.0
19	82.07800293	-67.51699829	-15.99599934	-17.7658596	23.64968109	9.038222313	1.0
20	82.07800293	-67.51699829	-15.99599934	-15.65781498	19.11331177	9.194731712	1.0
[LeftLeg]
18	0	-443.7049866	2.845999956	42.37217712	-6.635093212	-7.517519951	1.0
19	0	-443.7049866	2.845999956	37.53335953	-6.709655762	-7.241506577	1.0
20	0	-443.7049866	2.845999956	31.48457527	-7.034838676	-6.473243713	1.0
[LeftFoot]
18	0	-444.2789917	-29.8219986	9.02324295	10.06159306	4.452616692	1.0
19	0	-444.2789917	-29.8219986	9.419131279	12.21232319	2.098704338	1.0
20	0	-444.2789917	-29.8219986	8.71969986	16.59913445	0.4762661457	1.0
[LeftToeBase]
18	0	-87.28699493	107.1060028	-10.32381821	-0.5693696737	-6.274537563	1.0
19	0	-87.28699493	107.1060028	-10.95641041	-0.5591935515	-6.242366791	1.0
20	0	-87.28699493	107.1060028	-9.54769516	-0.4413715899	-4.86563015	1.0
[RightUpLeg]
18	-82.07800293	-67.51699829	-15.99599934	-5.851890564	-27.16636467	0.4879211187	1.0
19	-82.07800293	-67.51699829	-15.99599934	-5.002371311	-26.24857712	0.9317981601	1.0
20	-82.07800293	-67.51699829	-15.99599934	-4.39231205	-24.65499306	1.375262022	1.0
[RightLeg]
18	0	-443.7049866	2.861999989	18.21257019	0.6055774093	6.699002266	1.0
19	0	-443.7049866	2.861999989	16.22175598	4.335695744	6.588715076	1.0
20	0	-443.7049866	2.861999989	14.7517786	6.283030033	5.787271976	1.0
[RightFoot]
18	0	-444.2770081	-29.83799934	-6.610139847	-29.63957977	-5.549106121	1.0
19	0	-444.2770081	-29.83799934	-5.208053589	-27.63048172	-6.578038216	1.0
20	0	-444.2770081	-29.83799934	-4.151045799	-25.55586624	-6.498699188	1.0
[RightToeBase]
18	0	-87.28699493	107.1060028	-9.173666	-1.052019979e-05	-7.460502047e-07	1.0
19	0	-87.28699493	107.1060028	-9.238289833	-6.914273172e-07	-1.746952989e-06	1.0
20	0	-87.28699493	107.1060028	-9.49396801	3.416970685e-06	1.212388838e-06	1.0
[EndOfFile]
